<?xml version="1.0" encoding="utf-8"?>
<!-- Generator: Adobe Illustrator 27.8.1, SVG Export Plug-In . SVG Version: 6.00 Build 0)  -->
<svg version="1.1" id="Calque_1" xmlns="http://www.w3.org/2000/svg" xmlns:xlink="http://www.w3.org/1999/xlink" x="0px" y="0px"
	 viewBox="0 0 1771 2499.8" style="enable-background:new 0 0 1771 2499.8;" xml:space="preserve">
<style type="text/css">
	.st0{fill:#1572B6;}
	.st1{fill:#33A9DC;}
	.st2{fill:#FFFFFF;}
	.st3{fill:#EBEBEB;}
</style>
<path d="M1387.8,92.5h-146.9l152.8,165.9v78.9h-314.8v-92.4h152.8L1078.9,79V0h309L1387.8,92.5z M1016.4,92.5H869.3l153,165.9v78.9
	H707.4v-92.4h152.8L707.4,79V0h309V92.5z M648.6,96.3H490.1v144.8h158.5v96.3H377.3V0h271.3V96.3z"/>
<path class="st0" d="M161.2,2299.1L0,491.4h1771l-161.4,1807.4l-725.2,201L161.2,2299.1z"/>
<path class="st1" d="M885.5,2346.2l586-162.5l137.8-1544.5H885.5L885.5,2346.2z"/>
<path class="st2" d="M885.5,1294.1h293.4l20.2-227H885.5V845.5h556l-5.3,59.5l-54.5,611H885.5L885.5,1294.1z"/>
<path class="st3" d="M886.7,1869.9h-1l-246.9-66.7L623,1626.4H400.6l31.1,348.1l454.2,126.4h1.3v-231L886.7,1869.9z"/>
<path class="st2" d="M1160.1,1506.3l-26.7,296.7l-247.3,66.7v231l454.5-126l3.3-37.5l38.6-431h-222.4L1160.1,1506.3z"/>
<path class="st3" d="M886.3,845.5v221.7H350.9l-4.6-49.8L336.2,905l-5.3-59.5L886.3,845.5z M885.5,1294.1v221.7H641.4l-4.3-49.8
	L627,1353.6l-5.3-59.5L885.5,1294.1L885.5,1294.1z"/>
</svg>
