<?xml version="1.0" encoding="utf-8"?>
<!-- Generator: Adobe Illustrator 27.8.1, SVG Export Plug-In . SVG Version: 6.00 Build 0)  -->
<svg version="1.1" id="Calque_1" xmlns="http://www.w3.org/2000/svg" xmlns:xlink="http://www.w3.org/1999/xlink" x="0px" y="0px"
	 viewBox="0 0 1771 2500" style="enable-background:new 0 0 1771 2500;" xml:space="preserve">
<style type="text/css">
	.st0{fill:#FF6D00;}
	.st1{fill:#FFA05F;}
	.st2{fill:#EBEBEB;}
	.st3{fill:#FFFFFF;}
</style>
<path class="st0" d="M161.2,2299.1L0,491.4h1771l-161.3,1807.5l-725.2,201.1L161.2,2299.1z"/>
<path class="st1" d="M885.5,2346.2l586-162.5l137.9-1544.6H885.5V2346.2z"/>
<g>
	<path class="st2" d="M885.5,1309.6H592.1l-20.3-227h313.6V860.9H329.6l5.3,59.5l54.5,611h496.1V1309.6z M885.5,1885.5l-1,0.3
		L637.6,1819l-15.8-176.8H399.3l31.1,348.1l454.2,126.1l1-0.3L885.5,1885.5z"/>
</g>
<path d="M164.8,0.1h112.7v111.3h103.1V0.1h112.7v337.1H380.5V224.3H277.4v112.9H164.8L164.8,0.1L164.8,0.1z M641.3,111.9h-99.2V0.1
	h311.1v111.8H754v225.3H641.4L641.3,111.9z M902.6,0.1h117.5l72.3,118.4l72.2-118.4h117.5v337.1h-112.2V170.1L1092.4,290h-1.9
	l-77.6-119.9v167.1H902.6L902.6,0.1L902.6,0.1z M1338.2,0.1h112.7v225.7h158.4v111.4h-271.2V0.1z"/>
<g>
	<path class="st3" d="M884.7,1309.6v221.7h273l-25.7,287.5l-247.3,66.7v230.7l454.5-126l3.3-37.5l52.1-583.7l5.4-59.5h-59.7
		L884.7,1309.6z M884.7,860.9v221.7h535.5l4.4-49.8l10.1-112.4l5.3-59.5L884.7,860.9z"/>
</g>
</svg>
