<?xml version="1.0" encoding="utf-8"?>
<!-- Generator: Adobe Illustrator 24.2.3, SVG Export Plug-In . SVG Version: 6.00 Build 0)  -->
<svg version="1.1" id="Calque_1" xmlns="http://www.w3.org/2000/svg" xmlns:xlink="http://www.w3.org/1999/xlink" x="0px" y="0px"
	 viewBox="0 0 100 100" style="enable-background:new 0 0 100 100;" xml:space="preserve">
<style type="text/css">
	.st0{fill:#FFFFFF;}
</style>
<path class="st0" d="M60.9,45.7c-0.1-0.1-0.1-0.2-0.2-0.3l0,0c-0.2-0.2-0.4-0.3-0.6-0.4c-0.1,0-0.3-0.1-0.4-0.1
	c-0.4,0-0.9,0.1-1.4,0.4c0,0,0,0-0.1,0c-0.7,0.5-1.4,1-1.9,1.7l0,0l-6.7,8.8l0,0c-1.6,2.2-2.7,3.7-3.3,4.6c-0.5,0.8-0.7,1.4-0.7,1.9
	c-0.9,0.1-1.7,0.3-2.4,0.7l0,0c-0.6,0.3-1.2,0.8-1.7,1.4l0,0c-0.4,0.5-0.7,1.2-1.1,2.2c0,0,0,0,0,0.1c-0.3,1.3-0.5,2.2-0.6,2.5l0,0
	l-0.1,0.1c-0.2,0.4-0.4,1-0.8,1.6l0,0c-0.4,0.6-0.7,1-0.9,1.2l0,0c-0.5,0.5-1.2,0.9-1.9,1.4c0,0-0.1,0-0.1,0.1
	c-0.4,0.3-0.4,0.7-0.1,1l0,0c0.1,0.1,0.1,0.1,0.2,0.1c0.1,0,0.2,0.1,0.2,0.1c1.2,0.1,2.3,0.1,3.2,0.1c1.4,0,2.5-0.1,3.2-0.3
	c2.2-0.6,3.8-1.2,4.8-1.8l0,0c1-0.6,1.7-1.4,2.2-2.5c0,0,0,0,0-0.1c0.7-2.1,1.1-3.8,1.2-4.9v-0.1c0.1-0.1,0.3-0.3,0.5-0.4
	c0.3-0.3,0.6-0.7,0.9-1.2l0,0c0,0,0.1,0,0.1-0.1c0.6-0.5,2.3-3.9,5.3-10l0,0c1.7-2.7,2.7-4.6,3.3-5.6c0,0,0,0,0-0.1
	C61.1,46.9,61.2,46.2,60.9,45.7z M39.9,69.1L39.9,69.1L39.9,69.1C39.8,69.1,39.8,69.1,39.9,69.1z M42.2,73.5L42.2,73.5
	c-0.6,0.2-1.6,0.3-2.8,0.3c-0.4,0-0.9,0-1.4,0l0,0c0.2-0.2,0.5-0.4,0.7-0.6l0,0c0.4-0.3,0.7-0.8,1.2-1.5l0,0
	c0.4-0.6,0.7-1.2,0.8-1.6c0.2,0.1,0.3,0.2,0.4,0.3c0,0,0.1,0,0.1,0.1l0,0c0.1,0,0.2,0.1,0.2,0.1c0.1,0,0.2,0,0.3,0h0.1h0.1
	c0.2,0,0.3-0.1,0.4-0.1c0.2-0.1,0.3-0.1,0.3-0.2l0,0c0.2-0.2,0.3-0.4,0.4-0.4l0,0l0,0l0,0l0,0c0.1,0.1,0.3,0.3,0.5,0.7l0.1,0.1
	c0.2,0.1,0.3,0.3,0.6,0.4h-0.1h0.1c0.2,0.1,0.4,0.2,0.5,0.2l0,0c0.5,0.1,0.8,0.1,0.9,0.2l0,0l0,0c0.1,0,0.1,0.1,0.2,0.1l0,0
	c0.1,0.2,0.1,0.4,0,0.7v0.1C45.1,72.6,43.8,73.1,42.2,73.5z M41.5,69.1L41.5,69.1c0.1,0,0.2,0,0.2,0C41.7,69.2,41.6,69.1,41.5,69.1z
	 M41.7,69.3L41.7,69.3c-0.1,0.1-0.1,0.2-0.1,0.2C41.6,69.4,41.7,69.4,41.7,69.3L41.7,69.3z M42.8,69.8c0.1,0,0.1,0,0.2,0l0,0
	C43,69.8,42.9,69.8,42.8,69.8L42.8,69.8z M48.3,69.9L48.3,69.9c-0.2,0.6-0.6,1-1,1.4c0-0.2-0.1-0.5-0.2-0.7c0-0.1-0.1-0.1-0.1-0.2
	l-0.1-0.1c-0.1-0.1-0.3-0.2-0.5-0.3l0,0h-0.1l0,0c-0.2-0.1-0.5-0.1-1-0.2l0,0c0,0-0.1,0-0.2-0.1c-0.1-0.1-0.2-0.1-0.3-0.2l0,0
	c-0.3-0.5-0.6-0.8-0.8-0.9c-0.1-0.1-0.2-0.1-0.3-0.1l0,0c-0.2-0.1-0.3-0.1-0.5-0.1s-0.4,0-0.5,0.1l0,0c-0.1,0-0.2,0.1-0.3,0.2
	s-0.3,0.3-0.5,0.5l0,0l0,0l0,0l0,0c-0.1,0-0.2-0.2-0.5-0.3c0,0-0.1,0-0.1-0.1l0,0c0.1-0.4,0.3-1,0.4-1.7l0,0
	c0.3-0.9,0.6-1.5,0.9-1.9l0,0c0.4-0.5,0.9-0.8,1.4-1.1l0,0c0.6-0.3,1.4-0.5,2.3-0.6c0.1,0,0.2,0,0.3-0.1c0.6,0.7,1.5,1.3,2.7,2l0,0
	c0.1,0,0.1,0.1,0.2,0.1C49.2,66.6,48.8,68.1,48.3,69.9z M51.3,62.6c-0.1,0-0.1,0.1-0.2,0.2c-0.3,0.5-0.6,0.9-0.9,1.1
	c-0.2,0.2-0.3,0.3-0.4,0.4c-1.6-0.8-2.5-1.6-2.7-2.2c0-0.1-0.1-0.2-0.2-0.3l0,0c0.1-0.2,0.2-0.4,0.4-0.6l0,0c0.2-0.3,0.4-0.6,0.7-1
	c0.1,0.2,0.2,0.4,0.4,0.6l0,0l0,0l0,0c0.2,0.2,0.4,0.5,0.9,0.8l0,0c0.6,0.4,1.1,0.7,1.6,0.8l0,0c0.2,0,0.3,0.1,0.5,0.1
	C51.4,62.5,51.4,62.6,51.3,62.6L51.3,62.6z M59.6,47.4L59.6,47.4c-0.5,1-1.6,2.8-3.2,5.5c0,0,0,0,0,0.1c-1.9,3.9-3.2,6.6-4.1,8.1
	c-0.1,0-0.2,0-0.3,0.1l0,0h-0.1c-0.1,0-0.3,0-0.5-0.1l0,0c-0.4-0.1-0.8-0.3-1.3-0.7c-0.3-0.2-0.5-0.4-0.6-0.5l0,0l0,0
	c-0.2-0.3-0.4-0.6-0.6-1c0.5-0.7,1.1-1.5,1.7-2.4l6.7-8.8l0,0c0.4-0.5,0.9-1,1.5-1.3l0,0c0.4-0.2,0.6-0.3,0.8-0.3c0,0,0,0,0.1,0l0,0
	l0.1,0.1l0,0C59.9,46.5,59.8,46.9,59.6,47.4z"/>
</svg>
