<?xml version="1.0" encoding="utf-8"?>
<!-- Generator: Adobe Illustrator 25.1.0, SVG Export Plug-In . SVG Version: 6.00 Build 0)  -->
<svg version="1.1" id="Calque_1" xmlns="http://www.w3.org/2000/svg" xmlns:xlink="http://www.w3.org/1999/xlink" x="0px" y="0px"
	 viewBox="0 0 1000 1000" style="enable-background:new 0 0 1000 1000;" xml:space="preserve">
<style type="text/css">
	.st0{fill:#FFFFFF;}
</style>
<path class="st0" d="M295.4,153.7l-42.8,98.4l518.3,0.7c24.4,0,46.5-14.4,56.2-36.8l39.3-90.5l-526.7-0.7
	C320.4,124.8,303.1,136.1,295.4,153.7z"/>
<polygon class="st0" points="196.1,624.6 307.7,394.2 208.7,354.2 90.2,651.9 "/>
<polygon class="st0" points="68.8,664.4 222.2,318.4 235.5,399.4 82.7,659.9 "/>
<path class="st0" d="M111.2,550.7"/>
<polygon class="st0" points="166.4,318.4 122.4,427.6 462,427.6 507.6,318.4 "/>
<polyline class="st0" points="931.2,318.8 830.3,537.8 741.8,537.8 717.6,537.8 811.8,323.6 "/>
<polyline class="st0" points="680.4,865.6 768.7,675.3 654.1,675.3 604.7,785.7 602.4,790.5 680.4,865.6 714.8,790.5 714.8,790.5 
	714.8,790.5 714.8,790.5 "/>
<g>
	<path d="M-831.9,703.4c6.8,29.2,32.8,50.7,64.1,50.7c20.9,0,39.1-8.9,51.6-23.2h52.1c-17.4,40.1-56.9,68.6-103.7,68.6
		c-56.7,0-102.2-41.9-109.4-96.1"/>
</g>
<g>
	<path d="M-838.9,671.2l14.1-26.5l-1.8-16.6l-26.4-7c37.6-39.9,66.9-44.1,84.6-44.1c46.7,0,86.3,28,103.7,68.5h-51.2
		c-12.4-15.1-31.1-24.5-52.5-24.5c-36.5,0-65.9,29.4-65.9,67.2L-838.9,671.2z"/>
</g>
<g>
	<path d="M-949.7,688.3c0,36.5,29.8,65.9,65.9,65.9c21.3,0,39.6-9.3,52.1-23.6h51.6c-16.9,40.5-57,68.9-103.7,68.9
		c-61.9,0-110.4-49.8-110.4-111.2S-945.7,577-883.8,577s112.1,49.8,112.1,111.2H-949.7z M-831.3,644.6
		c-12.4-14.7-31.1-23.6-52.5-23.6c-20,0-38.3,8.9-50.3,23.6H-831.3z"/>
</g>
<polygon points="-638.6,242.5 -652.1,271.5 -565.6,271.5 -550.5,242.5 "/>
<polygon points="-659.1,287.5 -670,313.2 -583.3,313.2 -571.3,287.5 "/>
<polygon points="-678.3,328.5 -691.8,357.5 -546.2,357.5 -533.8,328.5 -667.4,328.5 "/>
<polyline points="-649.6,223.6 -719.2,375.7 -502.3,375.7 -508.1,414.7 -770.6,414.7 -666.2,190.4 -497.3,190.4 -514.2,223.6 
	-649.6,223.6 "/>
<polygon points="-642.1,249.5 -674.5,322.1 -633,322.1 -643.9,305.1 -621.1,258 "/>
<polyline points="-508.1,414.7 -470.8,315.5 -498.1,315.5 -510,315.5 -543.3,397.1 "/>
<polygon points="-457.3,594.4 -490.4,666.7 -448.9,666.7 -459.9,649.7 -437.1,602.6 "/>
<polygon points="-490.4,666.7 -454.5,587.1 -451.8,603.7 -487.6,665.8 "/>
<g>
	<polygon points="-454.5,587.1 -465.5,616.1 -393.3,616.1 -380.9,587.1 	"/>
	<polygon points="-474.4,632.1 -485.9,657.8 -411.1,657.8 -400.1,632.1 	"/>
	<polygon points="-494.2,673.1 -507.7,702.1 -430,702.1 -417.6,673.1 -483.3,673.1 	"/>
	<polygon points="-312.9,616.1 -299.4,587.1 -366.4,587.1 -378.6,616.1 -393.3,616.1 -400.1,632.1 -388.4,632.1 -399.2,657.8 
		-411.1,657.8 -417.6,673.1 -403.6,673.1 -416,702.1 -342.1,702.1 -331.9,673.1 -390.4,673.1 -366.7,616.1 	"/>
</g>
<g>
	<polygon class="st0" points="868.6,453.8 931.2,318.8 546.6,318.8 493.7,442.8 313.4,865.6 680.4,865.6 741.4,732.7 500.1,732.7 
		616.3,453.8 	"/>
</g>
<polygon class="st0" points="188.1,522.5 134.7,522.5 68.8,664.4 471,664.4 529,522.5 "/>
</svg>
